<?xml version="1.0" encoding="utf-8"?>
<!-- Svg Vector Icons : http://www.onlinewebfonts.com/icon -->
<!DOCTYPE svg PUBLIC "-//W3C//DTD SVG 1.1//EN" "http://www.w3.org/Graphics/SVG/1.1/DTD/svg11.dtd">
<svg version="1.1" xmlns="http://www.w3.org/2000/svg" xmlns:xlink="http://www.w3.org/1999/xlink" x="0px" y="0px" viewBox="0 0 256 256" enable-background="new 0 0 256 256" xml:space="preserve">
<metadata> Svg Vector Icons : http://www.onlinewebfonts.com/icon </metadata>
<g><g><path fill="#000000" d="M128,10C62.8,10,10,62.8,10,128c0,31.4,12.4,60,32.5,81.1C64,231.8,94.3,246,128,246c33.7,0,64-14.2,85.5-36.9C233.6,188,246,159.4,246,128C246,62.8,193.2,10,128,10z M94,102.8h15.9V86.5c0-16.6,5.8-27.4,17-31.9c5.5-2.2,10.3-2.8,15.3-2.8h24.6v27h-14.7c-4.4,0-7.1,1.2-8.5,3.6c-1,1.6-1.4,4.4-1.4,8.1v12.3h25l-3,27.1h-22v78.3h-32.3v-78.3H94V102.8z"/></g></g>
</svg>