<?xml version="1.0" encoding="utf-8"?>
<!-- Svg Vector Icons : http://www.onlinewebfonts.com/icon -->
<!DOCTYPE svg PUBLIC "-//W3C//DTD SVG 1.1//EN" "http://www.w3.org/Graphics/SVG/1.1/DTD/svg11.dtd">
<svg version="1.1" xmlns="http://www.w3.org/2000/svg" xmlns:xlink="http://www.w3.org/1999/xlink" x="0px" y="0px" viewBox="0 0 256 256" enable-background="new 0 0 256 256" xml:space="preserve">
<metadata> Svg Vector Icons : http://www.onlinewebfonts.com/icon </metadata>
<g><g><path fill="#000000" d="M157.2,101.3h12.2c1.9,0,3.5-1.6,3.5-3.6V85c0-2-1.6-3.6-3.5-3.6h-12.2c-1.9,0-3.5,1.6-3.5,3.6v12.7C153.7,99.7,155.3,101.3,157.2,101.3z"/><path fill="#000000" d="M128,150.2c11.9,0,21.6-10,21.6-22.4c0-12.4-9.7-22.4-21.6-22.4s-21.6,10-21.6,22.4C106.4,140.2,116.1,150.2,128,150.2z"/><path fill="#000000" d="M128,10C62.8,10,10,62.8,10,128c0,65.2,52.8,118,118,118c65.2,0,118-52.8,118-118C246,62.8,193.2,10,128,10z M185.2,88.3v13.3V112v55.7h0c0,0.1,0,0.3,0,0.4c0,9.9-7.5,17.9-17,18.4v0.1h-0.3H88.1h-0.3v-0.1c-9.4-0.4-17-8.5-17-18.4c0-0.1,0-0.3,0-0.4h0V112v-10.4V88.3h0c0-0.1,0-0.3,0-0.4c0-9.9,7.5-17.9,17-18.3v-0.1h0.3h79.8h0.3v0.1c9.4,0.4,17,8.5,17,18.3C185.2,88.1,185.2,88.2,185.2,88.3L185.2,88.3L185.2,88.3z"/><path fill="#000000" d="M161.2,127.8c0,19-14.9,34.5-33.2,34.5c-18.4,0-33.2-15.5-33.2-34.5c0-2.4,0.2-4.8,0.7-7.1H82.9v50.5c0,2,1.6,3.6,3.5,3.6h83.3c1.9,0,3.5-1.6,3.5-3.6v-50.5h-12.6C161,123,161.2,125.4,161.2,127.8z"/></g></g>
</svg>