<?xml version="1.0" encoding="utf-8"?>
<!-- Svg Vector Icons : http://www.onlinewebfonts.com/icon -->
<!DOCTYPE svg PUBLIC "-//W3C//DTD SVG 1.1//EN" "http://www.w3.org/Graphics/SVG/1.1/DTD/svg11.dtd">
<svg version="1.1" xmlns="http://www.w3.org/2000/svg" xmlns:xlink="http://www.w3.org/1999/xlink" x="0px" y="0px" viewBox="0 0 256 256" enable-background="new 0 0 256 256" xml:space="preserve">
<metadata> Svg Vector Icons : http://www.onlinewebfonts.com/icon </metadata>
<g><g><g><path fill="#000000" d="M128,10C62.8,10,10,62.8,10,128c0,65.2,52.8,118,118,118c65.2,0,118-52.8,118-118C246,62.8,193.2,10,128,10z M83.8,207.9H50.6V101.1h33.2V207.9z M67.2,86.6C56.6,86.6,48,78,48,67.3s8.6-19.2,19.2-19.2c10.6,0,19.2,8.6,19.2,19.2C86.4,78,77.8,86.6,67.2,86.6z M208,207.9h-33.1V156c0-12.4-0.2-28.3-17.2-28.3c-17.2,0-19.9,13.5-19.9,27.4v52.8h-33.1V101.1h31.8v14.6h0.5c4.4-8.4,15.2-17.2,31.4-17.2c33.6,0,39.8,22.1,39.8,50.8V207.9L208,207.9z"/></g><g></g><g></g><g></g><g></g><g></g><g></g><g></g><g></g><g></g><g></g><g></g><g></g><g></g><g></g><g></g></g></g>
</svg>